<?xml version="1.0" standalone="no"?>
<!DOCTYPE svg PUBLIC "-//W3C//DTD SVG 20010904//EN"
 "http://www.w3.org/TR/2001/REC-SVG-20010904/DTD/svg10.dtd">
<svg version="1.0" xmlns="http://www.w3.org/2000/svg"
 width="598.000000pt" height="598.000000pt" viewBox="0 0 598.000000 598.000000"
 preserveAspectRatio="xMidYMid meet">
<metadata>
Created by potrace 1.14, written by Peter Selinger 2001-2017
</metadata>
<g transform="translate(0.000000,598.000000) scale(0.100000,-0.100000)"
fill="#000000" stroke="none">
<path d="M2688 5836 c-65 -19 -193 -100 -259 -166 -40 -39 -62 -72 -78 -115
-43 -113 -32 -274 26 -373 32 -55 133 -159 192 -198 23 -15 40 -29 37 -31 -6
-6 -45 -12 -113 -17 -87 -7 -260 -86 -324 -148 -8 -8 -60 -49 -117 -92 -239
-183 -447 -524 -506 -831 -20 -104 -25 -152 -32 -315 -3 -74 -7 -141 -9 -147
-3 -8 -21 -13 -45 -13 -46 0 -75 -12 -105 -44 -16 -16 -20 -34 -20 -91 0 -58
5 -78 27 -116 34 -57 75 -94 125 -109 99 -31 123 -56 138 -145 4 -22 11 -44
15 -50 4 -5 10 -23 14 -40 11 -46 80 -203 120 -274 33 -57 51 -83 121 -171 11
-14 70 -75 130 -136 80 -81 128 -120 173 -143 34 -17 65 -31 69 -31 5 0 31 -7
58 -15 28 -8 120 -28 205 -45 85 -18 156 -33 158 -35 11 -10 -5 -140 -20 -170
-27 -52 -58 -68 -163 -80 -27 -3 -61 -8 -75 -10 -55 -10 -87 -15 -130 -19 -59
-7 -282 -46 -291 -51 -4 -3 -24 -7 -45 -11 -113 -18 -279 -85 -342 -139 -49
-43 -73 -90 -88 -180 -6 -38 -28 -151 -49 -250 -40 -194 -40 -197 -54 -295
-12 -86 -6 -215 12 -267 40 -115 107 -181 226 -224 l66 -24 690 0 c618 1 994
7 1095 20 19 2 80 7 135 10 55 3 118 8 140 10 22 3 60 7 85 9 199 20 420 62
540 102 129 44 176 81 220 179 62 136 77 296 44 470 -2 11 -7 40 -10 65 -3 25
-8 54 -10 65 -10 47 -16 82 -19 110 -18 141 -42 211 -87 251 -90 80 -278 138
-518 159 -179 15 -280 23 -395 30 -219 14 -255 20 -256 44 0 9 -2 25 -3 36 -8
60 -19 164 -20 190 -1 25 4 30 34 38 197 52 484 170 570 235 126 94 207 207
283 387 101 245 122 366 103 622 -4 67 17 104 81 137 96 49 131 110 128 226
-3 123 -24 171 -81 190 -20 7 -38 10 -41 7 -2 -3 -17 -1 -32 4 -25 9 -28 14
-30 67 -3 85 -28 184 -82 322 -8 19 -17 37 -20 40 -3 3 -16 28 -29 55 -57 122
-111 185 -265 310 -49 41 -117 99 -150 130 -85 79 -258 162 -419 201 -80 19
-134 26 -233 27 -46 1 -83 5 -83 8 0 3 21 17 47 30 61 31 125 97 173 178 75
126 97 231 65 308 -14 32 -79 127 -110 159 -5 6 -28 31 -51 55 -45 49 -122 90
-204 109 -30 7 -64 15 -75 19 -37 13 -209 10 -257 -3z"/>
</g>
</svg>
